<?xml version="1.0" encoding="iso-8859-1"?>
<!-- Generator: Adobe Illustrator 19.0.0, SVG Export Plug-In . SVG Version: 6.00 Build 0)  -->
<svg version="1.1" id="Layer_1" xmlns="http://www.w3.org/2000/svg" xmlns:xlink="http://www.w3.org/1999/xlink" x="0px" y="0px"
	 viewBox="0 0 512 512" style="enable-background:new 0 0 512 512;" xml:space="preserve">
<path style="fill:#2D2D2D;" d="M57.736,106.664h396.712V396.8c12.304,0,19.336,0,19.2,0V102.4c0-7.04-5.76-12.8-12.8-12.8H51.328
	c-7.04,0-12.8,5.76-12.8,12.8v294.4c0,0,7.008,0,19.2,0V106.664H57.736z"/>
<path style="fill:#8AD5DD;" d="M57.736,106.664V396.8c71.888,0,324.84,0,396.712,0V106.664H57.736z M262.992,366.408l-39.288-40.16
	l44.304-43.336H143.696v-57.816H275.28l-51.576-50.456l39.288-40.16l118.544,115.96L262.992,366.408z"/>
<path style="fill:#E8E8E8;" d="M454.448,396.8c-71.872,0-324.824,0-396.712,0c-12.2,0-19.2,0-19.2,0H0v8.536h512V396.8h-38.352
	C473.784,396.8,466.752,396.8,454.448,396.8z"/>
<polygon style="fill:#C9C9C9;" points="25.6,422.4 486.4,422.4 512,405.336 0,405.336 "/>
<polygon style="fill:#DB2B42;" points="294.904,233.104 151.696,233.104 151.696,274.92 287.632,274.92 235.016,326.384 
	263.12,355.096 370.104,250.456 263.12,145.808 235.016,174.528 "/>
<path style="fill:#FFFFFF;" d="M223.704,174.656l51.576,50.456H143.696v57.816h124.312l-44.304,43.336l39.288,40.16l118.544-115.952
	L262.992,134.496L223.704,174.656z M370.104,250.456L263.12,355.096l-28.104-28.72l52.616-51.464H151.696v-41.816h143.208
	l-59.888-58.576l28.104-28.72L370.104,250.456z"/>
<g>
</g>
<g>
</g>
<g>
</g>
<g>
</g>
<g>
</g>
<g>
</g>
<g>
</g>
<g>
</g>
<g>
</g>
<g>
</g>
<g>
</g>
<g>
</g>
<g>
</g>
<g>
</g>
<g>
</g>
</svg>
